<svg width="30" height="30" viewBox="0 0 30 30" fill="none" xmlns="http://www.w3.org/2000/svg">
<path fill-rule="evenodd" clip-rule="evenodd" d="M15 2.5C21.9036 2.5 27.5 8.09639 27.5 15C27.5 21.9035 21.9036 27.5 15 27.5C8.09646 27.5 2.5 21.9035 2.5 15C2.5 8.09639 8.09646 2.5 15 2.5ZM16.2527 13.75H13.7527V21.25H16.2527V13.75ZM15.0127 8.4375C14.1013 8.4375 13.4402 9.09494 13.4402 9.98266C13.4402 10.9063 14.0839 11.5625 15.0127 11.5625C15.9054 11.5625 16.5652 10.9063 16.5652 10C16.5652 9.09494 15.9054 8.4375 15.0127 8.4375Z" fill="#1DCED8"/>
</svg>
