<svg width="35" height="35" viewBox="0 0 35 35" fill="none" xmlns="http://www.w3.org/2000/svg">
<path d="M7.29169 14.5833H10.2084C13.125 14.5833 14.5834 13.125 14.5834 10.2083V7.29163C14.5834 4.37496 13.125 2.91663 10.2084 2.91663H7.29169C4.37502 2.91663 2.91669 4.37496 2.91669 7.29163V10.2083C2.91669 13.125 4.37502 14.5833 7.29169 14.5833Z" stroke="#1DCED8" stroke-width="3.75" stroke-miterlimit="10" stroke-linecap="round" stroke-linejoin="round"/>
<path d="M24.7917 14.5833H27.7084C30.625 14.5833 32.0834 13.125 32.0834 10.2083V7.29163C32.0834 4.37496 30.625 2.91663 27.7084 2.91663H24.7917C21.875 2.91663 20.4167 4.37496 20.4167 7.29163V10.2083C20.4167 13.125 21.875 14.5833 24.7917 14.5833Z" stroke="#1DCED8" stroke-width="3.75" stroke-miterlimit="10" stroke-linecap="round" stroke-linejoin="round"/>
<path d="M24.7917 32.0833H27.7084C30.625 32.0833 32.0834 30.625 32.0834 27.7083V24.7916C32.0834 21.875 30.625 20.4166 27.7084 20.4166H24.7917C21.875 20.4166 20.4167 21.875 20.4167 24.7916V27.7083C20.4167 30.625 21.875 32.0833 24.7917 32.0833Z" stroke="#1DCED8" stroke-width="3.75" stroke-miterlimit="10" stroke-linecap="round" stroke-linejoin="round"/>
<path d="M7.29169 32.0833H10.2084C13.125 32.0833 14.5834 30.625 14.5834 27.7083V24.7916C14.5834 21.875 13.125 20.4166 10.2084 20.4166H7.29169C4.37502 20.4166 2.91669 21.875 2.91669 24.7916V27.7083C2.91669 30.625 4.37502 32.0833 7.29169 32.0833Z" stroke="#1DCED8" stroke-width="3.75" stroke-miterlimit="10" stroke-linecap="round" stroke-linejoin="round"/>
</svg>
