<svg width="60" height="60" viewBox="0 0 60 60" fill="none" xmlns="http://www.w3.org/2000/svg">
<path d="M36.7147 21.9588C36.7147 24.9255 35.835 27.8256 34.1868 30.2924C32.5385 32.7591 30.1959 34.6817 27.455 35.817C24.7141 36.9523 21.6981 37.2494 18.7884 36.6706C15.8787 36.0918 13.2059 34.6632 11.1081 32.5654C9.01034 30.4676 7.58173 27.7949 7.00295 24.8852C6.42417 21.9754 6.72122 18.9594 7.85654 16.2185C8.99185 13.4777 10.9144 11.135 13.3812 9.48676C15.8479 7.83854 18.748 6.9588 21.7147 6.9588C23.6846 6.95855 25.6353 7.34637 27.4553 8.1001C29.2753 8.85383 30.929 9.95872 32.3219 11.3516C33.7148 12.7446 34.8197 14.3983 35.5734 16.2183C36.3272 18.0382 36.715 19.9889 36.7147 21.9588ZM23.8235 21.9777L29.5681 16.2313C29.8448 15.9489 29.9989 15.5687 29.9969 15.1734C29.9949 14.778 29.837 14.3995 29.5574 14.1199C29.2779 13.8403 28.8993 13.6824 28.5039 13.6804C28.1086 13.6784 27.7284 13.8325 27.4461 14.1092L21.7034 19.8557L15.955 14.1092C15.6726 13.8325 15.2924 13.6784 14.8971 13.6804C14.5018 13.6824 14.1232 13.8403 13.8436 14.1199C13.5641 14.3995 13.4061 14.778 13.4041 15.1734C13.4021 15.5687 13.5562 15.9489 13.833 16.2313L19.5813 21.9777L13.8348 27.7242C13.5682 28.0085 13.4226 28.3854 13.4289 28.7752C13.4353 29.1649 13.593 29.5369 13.8687 29.8124C14.1445 30.0879 14.5166 30.2452 14.9063 30.2512C15.296 30.2572 15.6728 30.1113 15.9569 29.8444L21.7015 24.0979L27.448 29.8444C27.7303 30.1211 28.1105 30.2752 28.5058 30.2732C28.9012 30.2712 29.2798 30.1133 29.5593 29.8337C29.8389 29.5541 29.9968 29.1756 29.9988 28.7802C30.0008 28.3849 29.8467 28.0047 29.57 27.7223L23.8235 21.9777Z" fill="#FF0A0A"/>
</svg>
