<svg width="116" height="145" viewBox="0 0 116 145" fill="none" xmlns="http://www.w3.org/2000/svg">
<rect x="1.5" y="1.5" width="113" height="142" stroke="#1DCED8" stroke-width="3"/>
<path d="M41.9518 54.4076H48.6771H58.2572H67.6322H74.0482C75.1354 54.4076 76.125 54.8536 76.8411 55.5664C77.5573 56.2826 78 57.2722 78 58.3594V60.6804V79.3164V81.6244C78 82.7116 77.554 83.7012 76.8411 84.4174C76.125 85.1335 75.1354 85.5762 74.0482 85.5762H67.7982C67.7461 85.586 67.6908 85.5892 67.6322 85.5892C67.5768 85.5892 67.5215 85.586 67.4661 85.5762H58.4232C58.3711 85.586 58.3158 85.5892 58.2572 85.5892C58.2018 85.5892 58.1465 85.586 58.0911 85.5762H48.8431C48.791 85.586 48.7357 85.5892 48.6771 85.5892C48.6217 85.5892 48.5664 85.586 48.5111 85.5762H41.9518C40.8646 85.5762 39.875 85.1303 39.1589 84.4174C38.4427 83.7045 38 82.7116 38 81.6244V79.3164V60.6804V58.3594C38 57.2722 38.446 56.2826 39.1589 55.5664C39.875 54.8536 40.8646 54.4076 41.9518 54.4076ZM55.9655 64.5769L62.6484 69.2383C62.7526 69.3034 62.847 69.3946 62.9219 69.502C63.2214 69.9349 63.1107 70.5241 62.681 70.8236L56.0241 75.4265C55.8613 75.5599 55.6497 75.6413 55.4219 75.6413C54.8945 75.6413 54.4681 75.2149 54.4681 74.6875V65.3549H54.4714C54.4714 65.1661 54.5267 64.9773 54.6406 64.8112C54.9434 64.3816 55.5358 64.2774 55.9655 64.5769ZM68.5827 80.2702V83.6719H74.0449C74.6081 83.6719 75.1191 83.4408 75.4902 83.0697C75.8613 82.6986 76.0924 82.1875 76.0924 81.6244V80.2702H68.5827ZM66.6784 83.6719V80.2702H59.2109V83.6719H66.6784ZM57.3066 83.6719V80.2702H49.6309V83.6719H57.3066ZM47.7233 83.6719V80.2702H39.9043V81.6244C39.9043 82.1875 40.1354 82.6986 40.5065 83.0697C40.8776 83.4408 41.3887 83.6719 41.9518 83.6719H47.7233ZM39.9043 78.3659H48.6771H58.2572H67.6322H76.0957V61.6342H67.6322H58.2572H48.6771H39.9043V78.3659ZM66.6784 59.7299V56.3119H59.2109V59.7266H66.6784V59.7299ZM68.5827 56.3119V59.7266H76.0924V58.3594C76.0924 57.7963 75.8613 57.2852 75.4902 56.9141C75.1191 56.543 74.6081 56.3119 74.0449 56.3119H68.5827ZM57.3066 59.7299V56.3119H49.6309V59.7266H57.3066V59.7299ZM47.7233 59.7299V56.3119H41.9518C41.3887 56.3119 40.8776 56.543 40.5065 56.9141C40.1354 57.2852 39.9043 57.7963 39.9043 58.3594V59.7266H47.7233V59.7299Z" fill="#1DCED8"/>
</svg>
