<svg width="66" height="66" viewBox="0 0 66 66" fill="none" xmlns="http://www.w3.org/2000/svg">
<g clip-path="url(#clip0_152_63)">
<path d="M32.1915 31.5437L35.3802 34.0474L39.2503 33.2483L37.8546 37.0545L39.8103 40.4883L35.759 40.337L33.0979 43.2584L31.9893 39.3591L28.389 37.7304L31.7553 35.4714L32.1915 31.5437ZM36.9583 21.793L23.9545 11.5837L22.1758 27.6005L8.44796 36.8137L23.1312 43.454L27.6509 59.3572L38.5042 47.4443L55.0258 48.0603L47.0501 34.057L52.7411 18.5351L36.9583 21.793Z" fill="#ED8C18"/>
<path d="M35.3802 34.0474L32.1915 31.5437L31.7553 35.4714L28.3891 37.7303L31.9895 39.3589L33.098 43.2583L35.759 40.337L39.8103 40.4883L37.8545 37.0545L39.2502 33.2482L35.3802 34.0474Z" fill="#D12D4E"/>
<path d="M53.5302 17.8549C53.2833 17.5686 52.9007 17.4385 52.5305 17.5148L37.2213 20.675L24.5977 10.7643C24.302 10.532 23.9042 10.4775 23.5571 10.6207C23.5552 10.6215 23.5532 10.6223 23.5513 10.6231C23.2027 10.7693 22.9606 11.093 22.9191 11.4687L21.1938 27.0048L7.86746 35.9487C7.55358 36.1594 7.37848 36.5235 7.40983 36.9003C7.44128 37.277 7.67425 37.6071 8.01874 37.7629L22.2614 44.2039L26.6488 59.6421C26.7522 60.0057 27.0443 60.2848 27.4124 60.3714C27.6282 60.4222 27.8502 60.402 28.0483 60.3202C28.1878 60.2626 28.3156 60.1744 28.421 60.0588L38.9484 48.5035L54.9868 49.1015C55.3645 49.1155 55.7202 48.9238 55.9163 48.6006C56.1125 48.2775 56.1179 47.8734 55.9309 47.5449L48.1944 33.9618L53.719 18.8938C53.8494 18.5388 53.7769 18.1412 53.5302 17.8549ZM46.0718 33.6984C45.9663 33.9864 45.993 34.3062 46.1446 34.5727L53.1942 46.9497L38.543 46.4033C38.3919 46.3977 38.2434 46.4251 38.1069 46.4815C37.9665 46.5394 37.8388 46.6279 37.7341 46.7429L28.1414 57.2722L24.1334 43.1694C24.0495 42.8743 23.8399 42.6313 23.5606 42.5049L10.5826 36.6359L22.7563 28.4655C23.011 28.2947 23.1774 28.0202 23.2113 27.7155L24.7832 13.5591L36.3151 22.6127C36.5563 22.802 36.8687 22.8755 37.169 22.8136L51.1188 19.934L46.0718 33.6984Z" fill="#000003"/>
<path d="M37.834 25.8667C37.9503 26.4301 38.5014 26.7927 39.0648 26.6762L46.4627 25.1493C46.5283 25.1358 46.5911 25.1164 46.6507 25.0918C47.104 24.9048 47.3751 24.4165 47.2724 23.9185C47.1561 23.355 46.605 22.9925 46.0416 23.1089L38.6436 24.6358C38.0804 24.7521 37.7177 25.3031 37.834 25.8667Z" fill="#000003"/>
<path d="M36.1132 27.2859L36.1498 27.2786C36.2169 27.2649 36.281 27.2453 36.342 27.2202C36.7936 27.0338 37.0649 26.5482 36.9647 26.0512C36.8507 25.4872 36.3013 25.1224 35.7372 25.2362L35.7006 25.2436C35.1366 25.3575 34.7719 25.907 34.8857 26.471C34.9997 27.035 35.5492 27.3999 36.1132 27.2859Z" fill="#000003"/>
<path d="M39.0395 32.228L35.643 32.9293L32.8347 30.7242C32.539 30.492 32.1411 30.4374 31.7941 30.5807C31.7922 30.5814 31.7902 30.5823 31.7883 30.583C31.4397 30.7292 31.1976 31.053 31.1559 31.4287L30.7732 34.8756L27.8085 36.8652C27.4946 37.0759 27.3195 37.4401 27.3508 37.817C27.3823 38.1936 27.6152 38.5237 27.9597 38.6796L31.1197 40.1088L32.0959 43.5432C32.1993 43.9068 32.4914 44.1859 32.8596 44.2725C33.2277 44.3591 33.6137 44.2394 33.8682 43.9599L36.2037 41.3962L39.7716 41.5294C39.9236 41.5351 40.0718 41.5074 40.2078 41.4513C40.4096 41.368 40.584 41.2218 40.7012 41.0286C40.8973 40.7054 40.9027 40.3012 40.7157 39.9727L38.9993 36.9593L40.2286 33.6069C40.3587 33.2521 40.2862 32.8544 40.0395 32.5682C39.7924 32.2816 39.4097 32.1516 39.0395 32.228ZM36.8764 36.6959C36.7709 36.9838 36.7975 37.3036 36.9492 37.5702L37.9787 39.3774L35.7979 39.296C35.6468 39.2904 35.4983 39.3177 35.3618 39.3741C35.2214 39.432 35.0936 39.5206 34.9889 39.6356L33.5883 41.1732L32.9918 39.0741C32.9079 38.7791 32.6984 38.5361 32.419 38.4098L30.5236 37.5525L32.3357 36.3366C32.5904 36.1657 32.7567 35.8913 32.7906 35.5866L33.0201 33.5192L34.7368 34.8671C34.978 35.0564 35.2903 35.1299 35.5908 35.0679L37.6277 34.6474L36.8764 36.6959Z" fill="#000003"/>
</g>
<defs>
<clipPath id="clip0_152_63">
<rect width="50" height="50" fill="white" transform="translate(0 19.0734) rotate(-22.4247)"/>
</clipPath>
</defs>
</svg>
