<svg width="60" height="60" viewBox="0 0 60 60" fill="none" xmlns="http://www.w3.org/2000/svg">
<path d="M16.2499 17.5C19.9033 13.8466 23.9837 11.0475 26.7437 9.35222C28.7552 8.11664 31.2445 8.11664 33.256 9.35222C36.016 11.0475 40.0965 13.8466 43.75 17.5C51.6707 25.421 51.25 30 51.25 37.5C51.25 41.0245 50.9737 43.997 50.6812 46.158C50.3732 48.4315 48.3902 50 46.096 50H42.5C39.7385 50 37.5 47.7615 37.5 45V40C37.5 38.0108 36.7097 36.1033 35.3032 34.6968C33.8967 33.2903 31.989 32.5 30 32.5C28.0107 32.5 26.1032 33.2903 24.6966 34.6968C23.2901 36.1033 22.4999 38.0108 22.4999 40V45C22.4999 47.7615 20.2613 50 17.4999 50H13.9038C11.6094 50 9.62652 48.4315 9.31862 46.1578C9.02597 43.997 8.74992 41.0245 8.74992 37.5C8.74992 30 8.32892 25.421 16.2499 17.5Z" stroke="#1DCED8" stroke-width="3.75" stroke-linecap="round" stroke-linejoin="round"/>
</svg>
