<svg width="128" height="40" viewBox="0 0 128 40" fill="none" xmlns="http://www.w3.org/2000/svg">
<path d="M4.94713 30.0827C4.45673 30.0827 4.01925 29.9773 3.63462 29.7662C3.25001 29.5632 2.94712 29.2781 2.72598 28.9109C2.51444 28.5437 2.40865 28.1257 2.40865 27.6569V24.1648C2.40865 23.4694 2.31732 22.9421 2.13462 22.5827C1.96155 22.2155 1.65386 21.9537 1.21155 21.7976C0.951932 21.6725 0.759624 21.5358 0.634626 21.3873C0.51924 21.2312 0.461548 21.0241 0.461548 20.7662V20.5085C0.461548 20.2507 0.51924 20.0437 0.634626 19.8873C0.759624 19.7312 0.951932 19.5905 1.21155 19.4656C1.65386 19.3171 1.96155 19.0632 2.13462 18.7038C2.31732 18.3366 2.40865 17.8093 2.40865 17.1217V13.6179C2.40865 13.1491 2.51444 12.7311 2.72598 12.364C2.94712 11.9968 3.25001 11.7116 3.63462 11.5085C4.01925 11.3054 4.45673 11.2038 4.94713 11.2038H5.95674C6.22597 11.2038 6.41828 11.2702 6.53366 11.403C6.65867 11.528 6.72117 11.735 6.72117 12.0241V12.3171C6.72117 12.5905 6.66828 12.7975 6.56251 12.9382C6.45674 13.0788 6.28847 13.153 6.0577 13.1608H6.10096C5.83175 13.1608 5.63943 13.2194 5.52406 13.3366C5.41827 13.446 5.3654 13.6335 5.3654 13.8991V17.4499C5.3654 18.2155 5.21154 18.8757 4.90385 19.4304C4.60578 19.9773 4.17789 20.3795 3.6202 20.6374C4.1875 20.903 4.6202 21.3093 4.91828 21.8561C5.21636 22.3952 5.3654 23.0515 5.3654 23.8249V27.3757C5.3654 27.6334 5.41346 27.8209 5.50962 27.9382C5.60578 28.0553 5.75961 28.1139 5.97117 28.1139H6.00002C6.25001 28.1296 6.4327 28.2038 6.5481 28.3366C6.66347 28.4694 6.72117 28.6765 6.72117 28.9577V29.239C6.72117 29.5358 6.65867 29.7507 6.53366 29.8835C6.41828 30.0163 6.22597 30.0827 5.95674 30.0827H4.94713Z" fill="#1DCED8"/>
<path d="M15.0983 27.1998H11.7867V13.7562H23.3714V16.4467H15.0983V19.1374H20.0597V21.828H15.0983V27.1998ZM27.0407 27.1998H23.8907V17.1592H24.6522L25.6906 18.3499C26.1982 17.9749 26.7752 17.6874 27.4213 17.4874C28.0674 17.2811 28.7368 17.1781 29.4291 17.1781H32.2099V19.728H29.4291C29.0983 19.728 28.7868 19.7781 28.4943 19.8781C28.2021 19.9781 27.9483 20.1155 27.7328 20.2906C27.5176 20.4656 27.3483 20.6718 27.2252 20.9093C27.1021 21.1467 27.0407 21.3998 27.0407 21.6686V27.1998ZM38.3598 24.7437C38.4829 24.7749 38.606 24.7968 38.729 24.8093C38.8521 24.8155 38.9752 24.8187 39.0983 24.8187C39.4061 24.8187 39.702 24.7843 39.9868 24.7155C40.2713 24.6467 40.5368 24.5499 40.7829 24.425C41.0368 24.2936 41.2599 24.1374 41.4521 23.9562C41.6522 23.7686 41.8136 23.5624 41.9367 23.3374L44.2444 25.2218C43.9522 25.5592 43.6137 25.8624 43.2291 26.1312C42.8522 26.3998 42.4406 26.628 41.9944 26.8155C41.5561 27.003 41.0905 27.1437 40.5982 27.2374C40.1136 27.3374 39.6136 27.3874 39.0983 27.3874C38.229 27.3874 37.4098 27.2562 36.6407 26.9936C35.879 26.7312 35.2098 26.3656 34.6328 25.8968C34.0637 25.428 33.6138 24.8718 33.2829 24.228C32.9521 23.5781 32.7867 22.8656 32.7867 22.0906C32.7867 21.2968 32.9521 20.5718 33.2829 19.9155C33.6138 19.2592 34.0637 18.6998 34.6328 18.2374C35.2098 17.7749 35.879 17.4155 36.6407 17.1592C37.4098 16.903 38.229 16.7749 39.0983 16.7749C39.6136 16.7749 40.1175 16.825 40.6098 16.925C41.1021 17.025 41.5675 17.1686 42.006 17.3562C42.4521 17.5437 42.8676 17.7749 43.2522 18.0499C43.6367 18.3187 43.9753 18.6218 44.2675 18.9592L38.3598 24.7437ZM39.9752 19.4656C39.829 19.4218 39.6829 19.3936 39.5368 19.3811C39.3984 19.3686 39.2521 19.3624 39.0983 19.3624C38.6676 19.3624 38.2598 19.428 37.8752 19.5592C37.4983 19.6843 37.1674 19.8656 36.8829 20.103C36.606 20.3405 36.3868 20.628 36.2252 20.9656C36.0637 21.2968 35.9829 21.6718 35.9829 22.0906C35.9829 22.1843 35.9867 22.2906 35.9944 22.4093C36.0097 22.528 36.029 22.6499 36.0521 22.7749C36.083 22.8936 36.1174 23.0093 36.156 23.1218C36.1944 23.2342 36.2444 23.3342 36.3059 23.4218L39.9752 19.4656ZM57.7099 27.1998H56.9483L55.7253 25.8218C55.4252 26.0405 55.1059 26.2467 54.7674 26.4405C54.4368 26.628 54.0867 26.7936 53.7174 26.9374C53.3482 27.0749 52.9676 27.1843 52.5753 27.2656C52.1905 27.3467 51.7982 27.3874 51.3983 27.3874C50.5291 27.3874 49.7099 27.2562 48.9407 26.9936C48.179 26.725 47.5098 26.3562 46.9328 25.8874C46.3637 25.4125 45.9136 24.853 45.5829 24.2093C45.2521 23.5592 45.0867 22.853 45.0867 22.0906C45.0867 21.3342 45.2521 20.6312 45.5829 19.9811C45.9136 19.3312 46.3637 18.7686 46.9328 18.2936C47.5098 17.8187 48.179 17.4467 48.9407 17.1781C49.7099 16.9093 50.5291 16.7749 51.3983 16.7749C51.6751 16.7749 51.9599 16.7936 52.2521 16.8312C52.552 16.8686 52.8405 16.9312 53.1174 17.0187C53.4022 17.0998 53.6674 17.2093 53.9136 17.3467C54.1597 17.4843 54.3675 17.653 54.5368 17.853V13.1655H57.7099V27.1998ZM54.5368 22.0906C54.5368 21.7405 54.4522 21.403 54.2828 21.0781C54.1213 20.7467 53.8982 20.4562 53.6137 20.2061C53.3291 19.9499 52.9943 19.7467 52.6097 19.5968C52.2328 19.4405 51.8291 19.3624 51.3983 19.3624C50.9676 19.3624 50.5598 19.425 50.1752 19.5499C49.7983 19.6749 49.4674 19.8562 49.1829 20.0936C48.906 20.325 48.6866 20.6093 48.5252 20.9467C48.3637 21.2843 48.2829 21.6656 48.2829 22.0906C48.2829 22.4592 48.3637 22.8093 48.5252 23.1405C48.6866 23.4718 48.906 23.7624 49.1829 24.0125C49.4674 24.2624 49.7983 24.4592 50.1752 24.603C50.5598 24.7467 50.9676 24.8187 51.3983 24.8187C51.8291 24.8187 52.2328 24.7437 52.6097 24.5936C52.9943 24.4374 53.3291 24.2342 53.6137 23.9843C53.8982 23.728 54.1213 23.4374 54.2828 23.1125C54.4522 22.7811 54.5368 22.4405 54.5368 22.0906ZM72.0636 27.1998H71.3021L70.079 25.8218C69.7791 26.0405 69.4599 26.2467 69.1213 26.4405C68.7905 26.628 68.4406 26.7936 68.0714 26.9374C67.7021 27.0749 67.3213 27.1843 66.929 27.2656C66.5444 27.3467 66.1521 27.3874 65.7522 27.3874C64.883 27.3874 64.0636 27.2562 63.2944 26.9936C62.5329 26.725 61.8637 26.3562 61.2868 25.8874C60.7175 25.4125 60.2675 24.853 59.9367 24.2093C59.606 23.5592 59.4406 22.853 59.4406 22.0906C59.4406 21.3342 59.606 20.6312 59.9367 19.9811C60.2675 19.3312 60.7175 18.7686 61.2868 18.2936C61.8637 17.8187 62.5329 17.4467 63.2944 17.1781C64.0636 16.9093 64.883 16.7749 65.7522 16.7749C66.0291 16.7749 66.3136 16.7936 66.606 16.8312C66.906 16.8686 67.1945 16.9312 67.4713 17.0187C67.7559 17.0998 68.0213 17.2093 68.2675 17.3467C68.5136 17.4843 68.7214 17.653 68.8906 17.853V13.1655H72.0636V27.1998ZM68.8906 22.0906C68.8906 21.7405 68.8059 21.403 68.6367 21.0781C68.4752 20.7467 68.2521 20.4562 67.9676 20.2061C67.6828 19.9499 67.3483 19.7467 66.9637 19.5968C66.5868 19.4405 66.1829 19.3624 65.7522 19.3624C65.3213 19.3624 64.9137 19.425 64.5291 19.5499C64.1522 19.6749 63.8214 19.8562 63.5368 20.0936C63.2597 20.325 63.0406 20.6093 62.8791 20.9467C62.7174 21.2843 62.6367 21.6656 62.6367 22.0906C62.6367 22.4592 62.7174 22.8093 62.8791 23.1405C63.0406 23.4718 63.2597 23.7624 63.5368 24.0125C63.8214 24.2624 64.1522 24.4592 64.5291 24.603C64.9137 24.7467 65.3213 24.8187 65.7522 24.8187C66.1829 24.8187 66.5868 24.7437 66.9637 24.5936C67.3483 24.4374 67.6828 24.2342 67.9676 23.9843C68.2521 23.728 68.4752 23.4374 68.6367 23.1125C68.8059 22.7811 68.8906 22.4405 68.8906 22.0906ZM77.4522 31.025V28.4467L79.206 28.4656C79.5136 28.4656 79.8097 28.425 80.0945 28.3437C80.379 28.2624 80.6406 28.1499 80.879 28.0061C81.1252 27.8624 81.3406 27.6906 81.5251 27.4906C81.7099 27.2968 81.8599 27.0843 81.9751 26.853C81.6291 26.9718 81.2752 27.0906 80.9137 27.2093C80.5598 27.328 80.2022 27.3874 79.8407 27.3874C79.079 27.3874 78.3637 27.2781 77.6944 27.0592C77.0252 26.8405 76.4366 26.5312 75.929 26.1312C75.429 25.725 75.033 25.2342 74.7405 24.6592C74.456 24.0781 74.3136 23.428 74.3136 22.7093V17.1592H77.4522V22.7093C77.4522 23.0656 77.5136 23.3781 77.6367 23.6467C77.7674 23.9093 77.9405 24.1312 78.156 24.3125C78.3714 24.4874 78.6213 24.6187 78.9061 24.7061C79.1983 24.7936 79.5098 24.8374 79.8407 24.8374C80.1636 24.8374 80.4675 24.7781 80.7522 24.6592C81.0444 24.5342 81.2983 24.3718 81.5137 24.1718C81.729 23.9718 81.8983 23.7467 82.0214 23.4968C82.1445 23.2405 82.2059 22.9781 82.2059 22.7093V17.1592H85.3791V25.9342C85.3714 26.6405 85.2021 27.303 84.8715 27.9218C84.5406 28.5405 84.0867 29.0811 83.5097 29.5437C82.9406 30.0061 82.2752 30.3718 81.5137 30.6405C80.7522 30.9093 79.9368 31.0437 79.0675 31.0437L77.4522 31.025ZM95.0945 21.828C95.0945 22.5718 94.9214 23.2718 94.5752 23.928C94.229 24.5781 93.756 25.1467 93.156 25.6342C92.5637 26.1155 91.8636 26.4968 91.056 26.7781C90.2559 27.0592 89.3983 27.1998 88.4828 27.1998C87.9291 27.1998 87.3751 27.1437 86.8214 27.0312V24.1437C87.0675 24.2624 87.333 24.353 87.6175 24.4155C87.9021 24.4781 88.1906 24.5093 88.4828 24.5093C88.9367 24.5093 89.3637 24.4405 89.7636 24.303C90.1714 24.1592 90.5251 23.9656 90.8252 23.7218C91.1251 23.4781 91.3599 23.1936 91.529 22.8686C91.7061 22.5437 91.7945 22.1968 91.7945 21.828V13.7562H95.0945V21.828ZM97.0098 17.7874C97.0098 17.2312 97.1405 16.7093 97.4021 16.2218C97.6636 15.7343 98.0174 15.3093 98.4637 14.9468C98.9176 14.578 99.4443 14.2874 100.044 14.0749C100.644 13.8624 101.287 13.7562 101.971 13.7562H109.564V16.4467H101.971C101.741 16.4467 101.525 16.4811 101.325 16.5499C101.125 16.6187 100.948 16.7155 100.794 16.8405C100.648 16.9592 100.533 17.0998 100.448 17.2624C100.364 17.425 100.321 17.5998 100.321 17.7874C100.321 17.9749 100.364 18.153 100.448 18.3218C100.533 18.4843 100.648 18.628 100.794 18.753C100.948 18.8718 101.125 18.9656 101.325 19.0342C101.525 19.103 101.741 19.1374 101.971 19.1374H105.283C105.967 19.1374 106.61 19.2437 107.21 19.4562C107.818 19.6624 108.344 19.9499 108.791 20.3187C109.244 20.6811 109.598 21.1093 109.852 21.603C110.114 22.0906 110.244 22.6125 110.244 23.1686C110.244 23.725 110.114 24.2467 109.852 24.7342C109.598 25.2218 109.244 25.6499 108.791 26.0187C108.344 26.3811 107.818 26.6686 107.21 26.8811C106.61 27.0936 105.967 27.1998 105.283 27.1998H97.933V24.5093H105.283C105.514 24.5093 105.729 24.4749 105.929 24.4061C106.129 24.3374 106.302 24.2437 106.448 24.125C106.602 23.9998 106.721 23.8562 106.806 23.6936C106.891 23.5312 106.933 23.3562 106.933 23.1686C106.933 22.9811 106.891 22.8061 106.806 22.6437C106.721 22.4811 106.602 22.3405 106.448 22.2218C106.302 22.0968 106.129 21.9998 105.929 21.9312C105.729 21.8624 105.514 21.828 105.283 21.828H101.971C101.287 21.828 100.644 21.7218 100.044 21.5093C99.4443 21.2968 98.9176 21.0093 98.4637 20.6467C98.0174 20.2781 97.6636 19.8499 97.4021 19.3624C97.1405 18.8686 97.0098 18.3437 97.0098 17.7874Z" fill="#DADDE8"/>
<path d="M119.224 30.0827C118.954 30.0827 118.757 30.0163 118.632 29.8835C118.517 29.7507 118.459 29.5358 118.459 29.239V28.9577C118.459 28.6608 118.512 28.4459 118.618 28.3131C118.733 28.1803 118.921 28.1139 119.18 28.1139H119.195C119.416 28.1139 119.574 28.0515 119.671 27.9264C119.767 27.8093 119.815 27.6257 119.815 27.3757V23.8249C119.815 23.0515 119.964 22.3952 120.262 21.8561C120.56 21.3093 120.993 20.903 121.56 20.6374C121.002 20.3795 120.57 19.9773 120.262 19.4304C119.964 18.8757 119.815 18.2155 119.815 17.4499V13.8991C119.815 13.6257 119.767 13.4343 119.671 13.3249C119.574 13.2155 119.392 13.1608 119.123 13.1608H119.094C118.873 13.1608 118.709 13.0905 118.603 12.9499C118.507 12.8093 118.459 12.5983 118.459 12.3171V12.0241C118.459 11.735 118.517 11.528 118.632 11.403C118.757 11.2702 118.954 11.2038 119.224 11.2038H120.233C120.714 11.2038 121.147 11.3093 121.531 11.5202C121.925 11.7233 122.228 12.0085 122.44 12.3757C122.661 12.735 122.772 13.1491 122.772 13.6179V17.1217C122.772 17.8093 122.858 18.3366 123.031 18.7038C123.214 19.0632 123.526 19.3171 123.969 19.4656C124.228 19.5905 124.416 19.7312 124.531 19.8873C124.656 20.0437 124.719 20.2507 124.719 20.5085V20.7662C124.719 21.0241 124.656 21.2312 124.531 21.3873C124.416 21.5358 124.228 21.6725 123.969 21.7976C123.526 21.9537 123.214 22.2155 123.031 22.5827C122.858 22.9421 122.772 23.4694 122.772 24.1648V27.6569C122.772 28.1257 122.661 28.5437 122.44 28.9109C122.228 29.2781 121.925 29.5632 121.531 29.7662C121.147 29.9773 120.714 30.0827 120.233 30.0827H119.224Z" fill="#1DCED8"/>
<g filter="url(#filter0_d_152_109)">
<path d="M111.597 5.88309C111.26 5.18153 110.677 4.57611 109.919 4.14238C109.162 3.70867 108.264 3.46589 107.337 3.44437C107.317 3.44365 107.298 3.44851 107.278 3.44912C107.251 3.44454 107.223 3.44158 107.196 3.44025C102.874 3.33331 98.1811 5.49568 96.8519 9.10104C95.8441 8.18046 94.3591 7.65691 92.868 7.84889C90.9659 8.09382 89.4319 9.42835 89.1174 11.0382C89.1008 11.1347 89.1215 11.2331 89.1762 11.3198C89.231 11.4065 89.3172 11.4775 89.4232 11.523C89.7837 11.6991 90.0305 11.823 90.4513 11.8624C91.2433 11.9364 92.0364 11.9985 92.8309 12.0486C94.3809 12.1463 95.9335 12.1997 97.4882 12.2088C100.643 12.2283 103.795 12.0617 106.921 11.7102C107.961 11.5932 108.964 11.4776 109.87 11.0019C110.535 10.6422 111.073 10.1475 111.43 9.56696C112.131 8.45926 112.171 7.04758 111.597 5.88309Z" fill="#3F3D56"/>
<path d="M111.151 6.10618C110.838 5.48518 110.304 4.95411 109.617 4.58074C108.905 4.20181 108.076 3.99224 107.225 3.97571L107.174 3.98005L107.126 3.9772C107.111 3.97464 107.095 3.97299 107.079 3.97227C105.656 3.95661 104.243 4.16098 102.914 4.5745C100.36 5.3604 98.0429 6.90243 97.1585 9.14642L97.0325 9.46837L96.7497 9.2211C95.8191 8.4127 94.528 8.00496 93.2632 8.11298C93.2004 8.11834 93.1376 8.1247 93.0738 8.13312C91.3255 8.354 89.8921 9.5144 89.5866 10.9553C89.5809 11.0059 89.5947 11.0567 89.6262 11.1005C89.6579 11.1444 89.7056 11.1791 89.7627 11.1998L89.7836 11.2099C90.118 11.3633 90.3196 11.4564 90.6723 11.487C91.4407 11.5526 92.2211 11.6072 92.9914 11.6498C94.4853 11.7331 96.0132 11.7766 97.5309 11.7792C100.215 11.784 102.897 11.6569 105.563 11.3985C105.953 11.3612 106.343 11.321 106.731 11.2779C107.73 11.1678 108.674 11.0622 109.527 10.6345C110.137 10.3205 110.636 9.88318 110.975 9.36539C111.295 8.86542 111.477 8.31461 111.507 7.75158C111.538 7.18856 111.416 6.62696 111.151 6.10618Z" fill="white"/>
<path d="M105.563 11.3984C102.897 11.6568 100.215 11.784 97.5309 11.7791C96.0132 11.7765 94.4853 11.733 92.9915 11.6498C92.2211 11.6072 91.4407 11.5525 90.6723 11.4869C90.3196 11.4564 90.1178 11.3632 89.7834 11.2098L89.7625 11.1997C89.7054 11.179 89.6577 11.1443 89.6262 11.1004C89.5947 11.0566 89.5807 11.0058 89.5867 10.9552C89.8921 9.51432 91.3255 8.35392 93.0736 8.13304C93.1374 8.12461 93.2002 8.11826 93.2632 8.11288C94.528 8.00487 95.8191 8.41261 96.7497 9.22101L97.0325 9.46829L97.1585 9.14632C98.0429 6.90234 100.359 5.36031 102.914 4.5744C103.495 4.91855 103.913 5.48632 103.791 6.0565C103.645 6.7481 102.774 7.24599 102.708 7.94562C102.647 8.58413 103.275 9.11915 103.899 9.50927C104.523 9.8984 105.237 10.2819 105.482 10.8893C105.548 11.0534 105.575 11.2261 105.563 11.3984Z" fill="#1DCED8"/>
<path d="M109.021 8.5526L109.91 7.66336L108.813 6.94372L109.084 6.67267L110.516 7.61164L109.356 8.77193L109.021 8.5526Z" fill="#E6E6E6"/>
<path d="M105.637 8.83336L104.539 8.11382L105.428 7.22458L105.094 7.00525L103.934 8.16544L105.366 9.10442L105.637 8.83336Z" fill="#E6E6E6"/>
<path d="M109.001 8.39678L109.89 7.50753L108.793 6.78789L109.064 6.51685L110.496 7.45582L109.335 8.61611L109.001 8.39678Z" fill="#1DCED8"/>
<path d="M106.068 7.89206L106.472 7.8576L106.43 7.52958L106.026 7.56406L106.068 7.89206ZM108.052 7.39099L107.649 7.42547L107.691 7.75349L108.095 7.71901L108.052 7.39099ZM106.88 7.82278L107.283 7.7883L107.241 7.46029L106.837 7.49477L106.88 7.82278Z" fill="#0A0A19"/>
<path d="M105.617 8.67749L104.519 7.95796L105.408 7.06869L105.073 6.84937L103.914 8.00957L105.346 8.94853L105.617 8.67749Z" fill="#1DCED8"/>
</g>
<g filter="url(#filter1_d_152_109)">
<path d="M12.4578 34.7384C13.9002 34.7384 15.0695 33.7672 15.0695 32.5691C15.0695 31.371 13.9002 30.3998 12.4578 30.3998C11.0154 30.3998 9.84613 31.371 9.84613 32.5691C9.84613 33.7672 11.0154 34.7384 12.4578 34.7384Z" fill="#1DCED8"/>
<path d="M21.4797 34.7384C22.9222 34.7384 24.0915 33.7672 24.0915 32.5691C24.0915 31.371 22.9222 30.3998 21.4797 30.3998C20.0375 30.3998 18.8682 31.371 18.8682 32.5691C18.8682 33.7672 20.0375 34.7384 21.4797 34.7384Z" fill="#1DCED8"/>
<path d="M30.502 34.7384C31.9444 34.7384 33.1136 33.7672 33.1136 32.5691C33.1136 31.371 31.9444 30.3998 30.502 30.3998C29.0595 30.3998 27.8904 31.371 27.8904 32.5691C27.8904 33.7672 29.0595 34.7384 30.502 34.7384Z" fill="#1DCED8"/>
<path d="M40.7897 34.2837C40.7485 34.2837 40.7077 34.2771 40.6699 34.2642C40.6319 34.2512 40.5977 34.2322 40.5689 34.2082L38.8067 32.7446C38.7501 32.6978 38.7186 32.6347 38.7186 32.5691C38.7186 32.5035 38.7501 32.4405 38.8067 32.3936L40.5689 30.9301C40.6264 30.8834 40.7042 30.8568 40.7857 30.8563C40.8671 30.856 40.9454 30.8816 41.0035 30.9278C41.0618 30.9741 41.0951 31.0371 41.0965 31.1034C41.0977 31.1694 41.0667 31.2333 41.0104 31.2811L39.4595 32.5691L41.0104 33.8573C41.053 33.8926 41.0817 33.9373 41.0929 33.9859C41.1044 34.0344 41.0979 34.0845 41.0742 34.1301C41.0508 34.1755 41.0112 34.2144 40.9606 34.2418C40.9098 34.2691 40.8505 34.2837 40.7897 34.2837Z" fill="#1DCED8"/>
<path d="M43.7508 34.2837C43.6899 34.2837 43.6306 34.2691 43.58 34.2418C43.5292 34.2144 43.4896 34.1755 43.4662 34.1301C43.4426 34.0845 43.4361 34.0344 43.4475 33.9859C43.4587 33.9373 43.4875 33.8926 43.53 33.8573L45.0808 32.5691L43.53 31.2811C43.4737 31.2333 43.4428 31.1694 43.444 31.1034C43.4453 31.0371 43.4786 30.9741 43.5369 30.9278C43.595 30.8816 43.6734 30.856 43.7547 30.8563C43.8362 30.8568 43.914 30.8834 43.9715 30.9301L45.7336 32.3936C45.7901 32.4405 45.8218 32.5035 45.8218 32.5691C45.8218 32.6347 45.7901 32.6978 45.7336 32.7446L43.9715 34.2082C43.9428 34.2322 43.9085 34.2512 43.8705 34.2642C43.8327 34.2771 43.7919 34.2837 43.7508 34.2837Z" fill="#969696"/>
</g>
<defs>
<filter id="filter0_d_152_109" x="89.1118" y="2.43646" width="29.883" height="12.7739" filterUnits="userSpaceOnUse" color-interpolation-filters="sRGB">
<feFlood flood-opacity="0" result="BackgroundImageFix"/>
<feColorMatrix in="SourceAlpha" type="matrix" values="0 0 0 0 0 0 0 0 0 0 0 0 0 0 0 0 0 0 127 0" result="hardAlpha"/>
<feOffset dx="5" dy="1"/>
<feGaussianBlur stdDeviation="1"/>
<feComposite in2="hardAlpha" operator="out"/>
<feColorMatrix type="matrix" values="0 0 0 0 0 0 0 0 0 0 0 0 0 0 0 0 0 0 0.15 0"/>
<feBlend mode="normal" in2="BackgroundImageFix" result="effect1_dropShadow_152_109"/>
<feBlend mode="normal" in="SourceGraphic" in2="effect1_dropShadow_152_109" result="shape"/>
</filter>
<filter id="filter1_d_152_109" x="7.84613" y="28.3998" width="37.9756" height="6.33856" filterUnits="userSpaceOnUse" color-interpolation-filters="sRGB">
<feFlood flood-opacity="0" result="BackgroundImageFix"/>
<feColorMatrix in="SourceAlpha" type="matrix" values="0 0 0 0 0 0 0 0 0 0 0 0 0 0 0 0 0 0 127 0" result="hardAlpha"/>
<feOffset dx="-1" dy="-1"/>
<feGaussianBlur stdDeviation="0.5"/>
<feComposite in2="hardAlpha" operator="out"/>
<feColorMatrix type="matrix" values="0 0 0 0 0 0 0 0 0 0 0 0 0 0 0 0 0 0 0.15 0"/>
<feBlend mode="normal" in2="BackgroundImageFix" result="effect1_dropShadow_152_109"/>
<feBlend mode="normal" in="SourceGraphic" in2="effect1_dropShadow_152_109" result="shape"/>
</filter>
</defs>
</svg>
