<svg width="30" height="30" viewBox="0 0 30 30" fill="none" xmlns="http://www.w3.org/2000/svg">
<path d="M24.3 26.7C25.6255 26.7 26.7 25.6255 26.7 24.3V5.69998C26.7 4.37444 25.6255 3.29998 24.3 3.29998H5.70001C4.37447 3.29998 3.30001 4.37444 3.30001 5.69998V24.3C3.30001 25.6255 4.37447 26.7 5.70001 26.7H24.3ZM24.3 27.9H5.70001C3.71174 27.9 2.10001 26.2882 2.10001 24.3V5.69998C2.10001 3.71171 3.71174 2.09998 5.70001 2.09998H24.3C26.2883 2.09998 27.9 3.71171 27.9 5.69998V24.3C27.9 26.2882 26.2883 27.9 24.3 27.9Z" fill="#1DCED8"/>
<path d="M2.85 8.40001H27.15C27.4814 8.40001 27.75 8.13139 27.75 7.80001C27.75 7.46864 27.4814 7.20001 27.15 7.20001H2.85C2.51862 7.20001 2.25 7.46864 2.25 7.80001C2.25 8.13139 2.51862 8.40001 2.85 8.40001Z" fill="#1DCED8"/>
<path d="M22.1672 2.43853L17.4236 7.18213C17.1893 7.41645 17.1893 7.79634 17.4236 8.03065C17.6579 8.26497 18.0378 8.26497 18.2721 8.03065L23.0157 3.28705C23.25 3.05273 23.25 2.67284 23.0157 2.43853C22.7814 2.20421 22.4015 2.20421 22.1672 2.43853ZM17.4872 2.43853L12.7436 7.18213C12.5093 7.41645 12.5093 7.79634 12.7436 8.03065C12.9779 8.26497 13.3578 8.26497 13.5921 8.03065L18.3357 3.28705C18.57 3.05273 18.57 2.67284 18.3357 2.43853C18.1014 2.20421 17.7215 2.20421 17.4872 2.43853ZM12.7772 2.43853L8.03359 7.18213C7.79928 7.41645 7.79928 7.79634 8.03359 8.03065C8.26791 8.26497 8.6478 8.26497 8.88212 8.03065L13.6257 3.28705C13.86 3.05273 13.86 2.67284 13.6257 2.43853C13.3914 2.20421 13.0115 2.20421 12.7772 2.43853ZM8.1272 2.40853L3.38359 7.15213C3.14928 7.38645 3.14928 7.76634 3.38359 8.00065C3.61791 8.23497 3.9978 8.23497 4.23212 8.00065L8.97572 3.25705C9.21004 3.02273 9.21004 2.64284 8.97572 2.40853C8.7414 2.17421 8.36151 2.17421 8.1272 2.40853ZM25.6424 3.67257L21.971 7.34396C21.7367 7.57828 21.7367 7.95817 21.971 8.19249C22.2053 8.42681 22.5852 8.42681 22.8195 8.19249L26.4909 4.52109C26.7253 4.28678 26.7253 3.90688 26.4909 3.67257C26.2566 3.43825 25.8767 3.43825 25.6424 3.67257ZM13.1356 12.7627C12.9359 12.636 12.6749 12.7796 12.6749 13.016V21.2462C12.6749 21.4825 12.936 21.6262 13.1356 21.4996L19.6291 17.3845C19.815 17.2667 19.815 16.9956 19.6291 16.8778L13.1356 12.7627H13.1356ZM20.2714 15.8642C21.2009 16.4532 21.2009 17.8092 20.2714 18.3982L13.778 22.5132C12.7795 23.1463 11.4749 22.4285 11.4749 21.2463V13.0161C11.4749 11.8337 12.7793 11.1161 13.7779 11.7491L20.2714 15.8642Z" fill="#1DCED8"/>
</svg>
