<svg width="40" height="40" viewBox="0 0 40 40" fill="none" xmlns="http://www.w3.org/2000/svg">
<path d="M3.72857 2.85712H35.7729C37.8314 2.85712 39.5014 4.52569 39.5014 6.58569C39.5014 8.64569 37.8329 10.3143 35.7729 10.3143H3.72857C1.67 10.3143 0 8.64569 0 6.58569C0 4.52569 1.66857 2.85712 3.72857 2.85712Z" fill="#1DCED8"/>
<path d="M3.72857 16.2714H35.7729C37.8314 16.2714 39.5014 17.94 39.5014 20C39.5014 22.06 37.8329 23.7286 35.7729 23.7286H3.72857C1.67 23.7286 0 22.06 0 20C0 17.94 1.66857 16.2714 3.72857 16.2714Z" fill="#1DCED8"/>
<path d="M3.72857 29.6871H35.7729C37.8314 29.6871 39.5014 31.3557 39.5014 33.4157C39.5014 35.4757 37.8329 37.1443 35.7729 37.1443H3.72857C1.67 37.1443 0 35.4757 0 33.4157C0 31.3557 1.66857 29.6871 3.72857 29.6871Z" fill="#1DCED8"/>
</svg>
