<svg width="40" height="40" viewBox="0 0 40 40" fill="none" xmlns="http://www.w3.org/2000/svg">
<path d="M9.75999 16.64C8.82666 16.64 8.03333 16.9667 7.37999 17.62C6.72666 18.2733 6.39999 19.0667 6.39999 20C6.39999 20.9333 6.72666 21.7267 7.37999 22.38C8.03333 23.0333 8.82666 23.36 9.75999 23.36C10.6933 23.36 11.4867 23.0333 12.14 22.38C12.7933 21.7267 13.12 20.9333 13.12 20C13.12 19.0667 12.7933 18.2733 12.14 17.62C11.4867 16.9667 10.6933 16.64 9.75999 16.64ZM20 16.64C19.0667 16.64 18.2733 16.9667 17.62 17.62C16.9667 18.2733 16.64 19.0667 16.64 20C16.64 20.9333 16.9667 21.7267 17.62 22.38C18.2733 23.0333 19.06 23.36 19.98 23.36C20.9 23.36 21.6933 23.0333 22.36 22.38C23.0267 21.7267 23.36 20.9333 23.36 20C23.36 19.0667 23.0267 18.2733 22.36 17.62C21.6933 16.9667 20.8933 16.64 19.96 16.64H20ZM30.24 16.64C29.3067 16.64 28.5133 16.9667 27.86 17.62C27.2067 18.2733 26.88 19.0667 26.88 20C26.88 20.9333 27.2067 21.7267 27.86 22.38C28.5133 23.0333 29.3067 23.36 30.24 23.36C31.1733 23.36 31.9667 23.0333 32.62 22.38C33.2733 21.7267 33.6 20.9333 33.6 20C33.6 19.0667 33.2733 18.2733 32.62 17.62C31.9667 16.9667 31.1733 16.64 30.24 16.64Z" fill="#1DCED8"/>
</svg>
