<svg width="40" height="40" viewBox="0 0 40 40" fill="none" xmlns="http://www.w3.org/2000/svg">
<path d="M18.7266 12.5078L4.14063 12.5C3.97266 12.5 3.84376 12.6445 3.86329 12.8125L6.44141 34.4141C6.64844 36.1641 8.13673 37.4844 9.89844 37.4844H21.5859C23.3516 37.4844 24.8399 36.1602 25.043 34.4062L27.5352 12.9688C27.5625 12.7188 27.3672 12.5 27.1172 12.5L18.7266 12.5078Z" fill="#EF0303"/>
<path d="M4.14452 12.5C4.14452 12.5 3.10937 10.3242 5.03905 10.0312C5.28905 9.99214 5.48437 9.79293 5.5078 9.54293C5.56249 8.97652 5.83593 8.05465 6.98827 7.80074C7.27734 7.73824 7.46093 7.4609 7.41405 7.17574C7.26562 6.28121 7.30468 4.6523 9.66015 4.93746C9.90234 4.9648 10.1367 4.8359 10.2383 4.61715C10.7109 3.57808 12.3203 0.984333 15.8555 3.62886C16.0273 3.75777 16.2539 3.7773 16.4453 3.68355C17.1953 3.31636 19.0664 2.56636 20.0781 4.67183C20.168 4.86324 20.3672 4.98433 20.582 4.98433C21.3437 4.98824 23.0195 5.25386 22.7617 7.49215C22.7617 7.6484 25.2578 7.10152 25.3125 9.5234C25.3203 9.78121 25.5039 9.99996 25.7617 10.0507C26.3945 10.1757 27.4492 10.582 27.4766 11.9414C27.4844 12.25 27.2305 12.5 26.918 12.5L4.34374 12.5078M30.0039 34.9843C30.0039 34.9843 27.7851 34.789 28.3437 32.4882C28.3437 32.4882 27.2344 29.9921 30.0039 29.9921C30.0039 29.9921 30.3516 27.3437 32.5039 28.9726C32.6133 28.9726 35.4141 27.8398 35.0039 30.6914C35.0039 30.6406 37.0039 30.4062 36.2461 32.4921C36.2461 32.3867 37.4609 34.9882 34.9805 34.9882C34.9805 34.9882 35 37.0195 32.5 36.2656C32.5078 36.2617 30.2617 37.0703 30.0039 34.9843Z" fill="#F4EA29"/>
<path d="M14.5391 37.3633L14.4687 12.6289C14.4687 12.5625 14.5234 12.5078 14.5859 12.5078L16.6914 12.5C16.7578 12.5 16.8125 12.5547 16.8125 12.6172L16.8828 37.3516C16.8828 37.418 16.8281 37.4727 16.7656 37.4727L14.6602 37.4805C14.5937 37.4844 14.5391 37.4297 14.5391 37.3633ZM9.53516 37.3984L9.46484 12.5977C9.46484 12.5508 9.50391 12.5117 9.55078 12.5117L11.7188 12.5039C11.7656 12.5039 11.8047 12.543 11.8047 12.5898L11.875 37.3906C11.875 37.4375 11.8359 37.4766 11.7891 37.4766L9.62109 37.4844C9.57422 37.4844 9.53516 37.4453 9.53516 37.3984ZM19.4805 37.3555L19.4102 12.6406C19.4102 12.5703 19.4688 12.5117 19.5391 12.5117L21.625 12.5039C21.6953 12.5039 21.7539 12.5625 21.7539 12.6328L21.8242 37.3477C21.8242 37.418 21.7656 37.4766 21.6953 37.4766L19.6094 37.4844C19.5391 37.4844 19.4805 37.4258 19.4805 37.3555Z" fill="white"/>
</svg>
