<svg width="30" height="30" viewBox="0 0 30 30" fill="none" xmlns="http://www.w3.org/2000/svg">
<path opacity="0.1" fill-rule="evenodd" clip-rule="evenodd" d="M15 3.75C5.73563 3.75 3.75 5.73563 3.75 15C3.75 24.2644 5.73563 26.25 15 26.25C24.2644 26.25 26.25 24.2644 26.25 15C26.25 5.73563 24.2644 3.75 15 3.75ZM14.375 9.6875C11.7862 9.6875 9.6875 11.7862 9.6875 14.375C9.6875 16.9639 11.7862 19.0625 14.375 19.0625C16.9639 19.0625 19.0625 16.9639 19.0625 14.375C19.0625 11.7862 16.9639 9.6875 14.375 9.6875Z" fill="#1DCED8"/>
<path d="M3.75 15C3.75 5.73563 5.73563 3.75 15 3.75C24.2644 3.75 26.25 5.73563 26.25 15C26.25 24.2644 24.2644 26.25 15 26.25C5.73563 26.25 3.75 24.2644 3.75 15Z" stroke="#0A0A19" stroke-width="5"/>
<path d="M17.5 17.5L20 20" stroke="#1DCED8" stroke-width="5" stroke-linecap="round" stroke-linejoin="round"/>
<path d="M18.75 14.375C18.75 16.7912 16.7912 18.75 14.375 18.75C11.9588 18.75 10 16.7912 10 14.375C10 11.9588 11.9588 10 14.375 10C16.7912 10 18.75 11.9588 18.75 14.375Z" stroke="#1DCED8" stroke-width="5"/>
</svg>
