<svg width="35" height="30" viewBox="0 0 35 30" fill="none" xmlns="http://www.w3.org/2000/svg">
<path d="M32.5973 0H2.40274C1.07668 0 0 1.11674 0 2.49213V23.16C0 24.5313 1.07668 25.6521 2.40274 25.6521H32.5973C33.9233 25.6521 35 24.5354 35 23.16V2.48803C35 1.11674 33.9194 0 32.5973 0ZM32.9416 23.16C32.9416 23.3571 32.7873 23.5172 32.5973 23.5172H2.40274C2.21273 23.5172 2.05836 23.3571 2.05836 23.16V2.48803C2.05836 2.29095 2.21273 2.13083 2.40274 2.13083H32.5973C32.7873 2.13083 32.9416 2.29095 32.9416 2.48803V23.16ZM25.7255 27.8651H9.25865C8.68865 27.8651 8.22947 28.3413 8.22947 28.9325C8.22947 29.5237 8.68865 30 9.25865 30H25.7295C26.2995 30 26.7587 29.5237 26.7587 28.9325C26.7587 28.3413 26.2955 27.8651 25.7255 27.8651ZM22.4321 12.0665L15.5683 7.79663C15.2516 7.59956 14.8558 7.59546 14.5312 7.78432C14.2106 7.97318 14.0087 8.33037 14.0087 8.71219V17.252C14.0087 17.6379 14.2066 17.991 14.5312 18.1798C14.6896 18.2743 14.8637 18.3194 15.0379 18.3194C15.22 18.3194 15.406 18.266 15.5683 18.1675L22.4321 13.8976C22.7409 13.7047 22.9309 13.3557 22.9309 12.9821C22.9309 12.6085 22.7409 12.2595 22.4321 12.0665Z" fill="#1DCED8"/>
</svg>
